PathFileType	4	(X/Y/Z)	C:/Users/opensim2020/Desktop/walking_exp_matlab/subject02_walking10_straight_04.trc																																																																																																																															
DataRate	CameraRate	NumFrames	NumMarkers	Units	OrigDataRate	OrigDataStartFrame	OrigNumFrames																																																																																																																											
100	100	7	43	mm	100	3247	260																																																																																																																											
Frame#	Time	LFHD			RFHD			LBHD			RBHD			C7			T10			CLAV			STRN			RBAK			LSHO			LUPA			LELB			LFRM			LWRA			LWRB			LFIN			RSHO			RUPA			RELB			RFRM			RWRA			RWRB			RFIN			LASI			RASI			LPSI			RPSI			LTHI			LKNE			LTIB			LANK			LHEE			LTOE			RTHI			RKNE			RTIB			RANK			RHEE			RTOE			*39			*40			*41			*42		
		X1	Y1	Z1	X2	Y2	Z2	X3	Y3	Z3	X4	Y4	Z4	X5	Y5	Z5	X6	Y6	Z6	X7	Y7	Z7	X8	Y8	Z8	X9	Y9	Z9	X10	Y10	Z10	X11	Y11	Z11	X12	Y12	Z12	X13	Y13	Z13	X14	Y14	Z14	X15	Y15	Z15	X16	Y16	Z16	X17	Y17	Z17	X18	Y18	Z18	X19	Y19	Z19	X20	Y20	Z20	X21	Y21	Z21	X22	Y22	Z22	X23	Y23	Z23	X24	Y24	Z24	X25	Y25	Z25	X26	Y26	Z26	X27	Y27	Z27	X28	Y28	Z28	X29	Y29	Z29	X30	Y30	Z30	X31	Y31	Z31	X32	Y32	Z32	X33	Y33	Z33	X34	Y34	Z34	X35	Y35	Z35	X36	Y36	Z36	X37	Y37	Z37	X38	Y38	Z38	X39	Y39	Z39	X40	Y40	Z40	X41	Y41	Z41	X42	Y42	Z42	X43	Y43	Z43
																																																																																																																																		
196	1.95	816.01617	1736.31995	1096.76416	828.53583	1718.51855	1238.73633	682.26318	1668.00769	1102.02222	682.15503	1648.29565	1243.73547	631.53583	1525.3092	1186.9762	577.05579	1249.92712	1197.89758	766.6767	1455.23438	1152.09888	818.78406	1283.10437	1160.36145	585.21277	1353.47485	1263.81543	667.50696	1494.23499	997.11206	617.90363	1298.73804	923.89838	591.245	1162.47034	918.62195	563.32941	1036.46716	895.67126	594.16632	899.3385	893.1579	540.70209	914.97772	883.04517	542.89349	848.75879	868.9093	742.91895	1496.30396	1354.86597	762.69849	1307.17908	1448.93091	806.92902	1166.55786	1465.20398	862.8266	1059.77966	1474.63806	929.45135	944.79132	1443.51135	895.09131	933.90161	1487.15259	945.68756	882.47211	1481.35315	801.76001	995.02795	1032.81714	822.71051	973.85242	1289.31885	598.04071	1029.70142	1130.89954	601.45862	1027.9563	1245.12659	778.95325	690.7934	954.77618	807.00671	488.1423	979.02551	801.28918	293.44037	982.82605	875.29419	77.83752	985.92035	870.72424	43.92926	1045.64661	1017.97424	76.59395	924.13831	726.6358	666.66937	1338.62585	696.85254	458.28397	1289.57056	634.06189	280.16757	1291.54785	593.17084	92.16919	1246.0697	551.59192	41.23985	1190.70447	742.49908	32.82674	1254.20898	725.61938	1806.23645	1194.88525	-2846.1123	1034.22437	3356.8811	NaN	NaN	NaN	NaN	NaN	NaN
197	1.96	822.34058	1735.03992	1095.28296	835.54999	1717.75842	1237.47864	689.53558	1666.98486	1101.07373	689.14618	1647.52002	1242.88184	638.32715	1524.44287	1186.39453	583.57092	1249.24878	1197.72974	773.40894	1454.20959	1151.45447	825.29089	1282.06274	1159.77368	591.86603	1352.7041	1263.38403	673.90186	1493.26526	996.62927	624.28583	1297.92346	923.49042	596.99243	1161.96326	918.4765	567.02478	1036.84277	895.27869	596.66168	899.06848	892.3844	542.53308	915.27295	882.5033	544.22314	848.84387	868.78809	749.8291	1495.45288	1354.271	770.54181	1306.33398	1448.12366	816.45227	1166.25146	1464.59631	873.90253	1059.99768	1473.75208	941.81567	946.15283	1441.69641	907.59106	934.55988	1485.70691	959.11395	884.11414	1479.29199	808.40814	994.06744	1032.53638	829.22827	973.10901	1289.12476	604.79657	1028.75073	1130.42627	608.00476	1027.16943	1244.69409	785.74951	689.31073	955.62177	816.0871	487.20914	980.66779	816.24152	292.57361	982.85895	896.58215	79.15246	984.34552	892.77338	45.11094	1044.07129	1040.70313	80.49485	924.27734	731.4696	666.18762	1338.43347	700.05548	457.98352	1289.53772	635.71283	280.35239	1291.47693	593.52588	92.53693	1245.91846	551.58942	41.89692	1190.66187	742.58362	32.84621	1254.31042	732.56079	1805.35999	1193.62378	NaN	NaN	NaN	NaN	NaN	NaN	NaN	NaN	NaN
198	1.97	829.42383	1734.31824	1093.94751	842.53094	1716.96667	1236.1167	695.39471	1665.79749	1100.32227	696.16022	1646.91638	1241.95081	645.08289	1523.57861	1185.77539	590.26294	1248.35156	1196.83411	780.12299	1453.18921	1150.68066	832.2066	1281.23157	1159.10449	598.81232	1351.83301	1262.41333	680.45416	1492.3623	995.97205	631.50897	1297.05103	922.75989	602.97119	1161.41321	918.11438	571.62531	1036.37158	895.16296	598.45734	898.55304	891.5108	545.19904	915.67798	881.82648	545.4679	849.19427	868.26947	756.6366	1494.67261	1353.58325	778.22656	1305.41028	1447.31409	825.75891	1165.50305	1463.20557	884.48334	1060.12659	1472.15332	953.86621	947.52539	1439.71729	919.9201	935.14148	1483.38074	972.22736	885.54675	1477.16162	815.12872	993.07361	1032.23718	835.789	972.32928	1288.93677	611.52863	1027.87012	1129.93311	614.57422	1026.47449	1244.2771	792.78491	687.86267	956.33105	825.39172	486.35468	982.02734	830.56665	292.06088	983.02661	916.97437	80.73717	982.89807	913.24695	46.70761	1042.72961	1062.36682	84.04044	924.37592	736.3028	665.73718	1338.41211	703.45288	457.53052	1289.47314	637.48694	280.55453	1291.40405	593.88361	92.95334	1245.81091	551.77136	42.37915	1190.48474	742.54095	32.79478	1254.39465	739.34418	1804.38013	1192.18787	-2845.9375	1034.10938	3356.8606	NaN	NaN	NaN	NaN	NaN	NaN
199	1.98	836.17993	1733.28809	1092.52502	849.55676	1716.15454	1234.76233	702.50006	1664.86719	1098.9718	703.11945	1645.90564	1240.77917	651.51013	1523.05994	1185.36682	596.74866	1247.70349	1196.51062	786.82654	1452.13977	1149.828	838.34558	1279.93005	1158.32336	605.30725	1351.08057	1261.82312	687.00354	1491.35681	995.17578	638.06116	1296.22131	921.88928	608.83856	1160.70361	917.57007	576.32172	1036.57239	894.2464	601.10083	898.13635	890.56189	547.54932	915.99042	880.90881	546.672	849.30652	867.63538	763.63739	1493.95984	1352.97864	785.78265	1304.37012	1446.20154	834.64471	1165.3988	1463.2345	894.96149	1060.49072	1470.82092	965.77679	949.03192	1437.85278	931.83423	935.62488	1481.30933	985.01788	886.99847	1474.90466	821.95734	992.09808	1031.91931	842.30328	971.43335	1288.69702	618.24957	1026.98499	1129.38806	621.28345	1025.73328	1243.70227	800.05945	686.35913	956.91724	834.83789	485.54745	983.15063	844.41937	291.73004	983.19427	935.93445	82.25022	982.19476	932.65057	48.98925	1041.30737	1082.37292	86.97952	924.59888	741.17242	665.21423	1338.28088	706.72028	457.32596	1289.43311	639.33691	280.78134	1291.23352	594.33533	93.47598	1245.68445	552.03656	43.10226	1190.13843	742.70886	32.8381	1254.61963	746.4281	1803.61853	1190.94751	-2845.91968	1034.13721	3356.89038	NaN	NaN	NaN	NaN	NaN	NaN
200	1.99	843.065	1732.22998	1091.01563	856.58813	1715.354	1233.36243	709.33142	1663.85437	1097.7699	710.13458	1645.06226	1239.61218	658.83588	1521.85205	1183.94849	603.56317	1246.74377	1195.37683	793.61456	1451.10242	1148.85535	844.93805	1278.91968	1157.39966	612.02173	1350.32361	1260.96643	693.896	1490.25745	994.31702	644.76019	1295.19727	921.05902	615.16455	1160.07629	916.96759	581.50238	1036.56482	893.44177	603.75867	897.72803	889.56897	550.51556	916.43475	879.8335	548.47491	849.55273	866.95276	770.67755	1492.85168	1351.9198	793.22369	1303.32336	1445.07666	843.6015	1164.646	1461.81152	905.026	1060.42468	1469.29321	977.35388	950.25006	1435.65723	943.46185	936.04327	1478.81812	997.12317	888.29388	1472.08447	828.81104	991.02728	1031.64856	848.85754	970.56287	1288.50415	625.01013	1026.10718	1128.76941	627.97571	1025.13293	1243.15918	807.72253	685.00769	957.3429	844.4837	484.91946	983.79852	857.39569	291.52353	983.43457	953.06281	83.73202	980.98022	950.34491	50.6111	1040.8302	1100.93042	89.38896	925.03247	746.06903	664.66992	1338.13135	710.22479	457.03336	1289.43848	641.2605	281.01462	1291.16443	594.76904	93.9738	1245.49426	552.3031	43.80178	1189.797	742.88489	32.6007	1254.66626	753.41467	1802.71228	1189.46704	-2845.87769	1034.09766	3356.94092	NaN	NaN	NaN	NaN	NaN	NaN
201	2	849.76813	1731.26111	1089.64575	863.62817	1714.58923	1231.83276	716.20813	1662.79346	1096.47095	717.16638	1644.22144	1238.33569	665.68805	1521.1217	1183.07349	610.15259	1246.08203	1194.83142	800.28455	1450.01318	1147.75342	851.74963	1278.10986	1156.43823	618.80579	1349.63879	1259.94482	700.65588	1489.3136	993.13599	652.0899	1294.09143	920.11273	622.06921	1159.39063	916.21606	585.81543	1036.6626	892.43018	606.5094	897.11859	888.37451	553.8999	916.79529	878.65027	550.55096	849.81927	866.10553	777.82886	1491.96021	1351.06128	800.61725	1302.25281	1443.73279	852.26538	1164.01965	1460.61438	914.90179	1060.32397	1467.36523	988.56042	951.37628	1433.24622	954.82788	936.3811	1475.95911	1009.19281	889.64044	1469.44653	835.72253	990.01276	1031.34875	855.39185	969.63141	1288.30188	631.72803	1025.23267	1128.14453	634.66437	1024.54797	1242.60046	815.93103	683.90778	957.50922	854.38824	484.38943	984.11627	870.19006	291.2561	983.79889	969.0213	85.07555	980.75256	966.36621	52.23811	1040.29224	1117.79248	91.31885	925.91516	750.95026	664.18488	1338.04053	713.83563	456.70242	1289.35437	643.07343	281.34769	1290.87695	595.3186	94.62309	1245.31091	552.62598	44.56806	1189.42932	742.7226	32.53074	1254.56616	760.19214	1801.67871	1187.78333	-2845.88623	1034.19763	3356.96631	NaN	NaN	NaN	NaN	NaN	NaN
202	2.01	856.91968	1730.0321	1087.86829	870.69836	1713.81616	1230.18298	723.16827	1661.75159	1095.03308	724.27161	1643.44238	1236.89673	672.69348	1520.50598	1182.13	616.93079	1245.25183	1193.53027	807.27423	1449.14014	1146.6488	858.44318	1277.01013	1155.3938	625.60229	1348.90942	1258.94373	707.55621	1488.37317	992.02777	658.26251	1292.90759	919.18079	627.64471	1158.72229	915.32965	591.01862	1036.50806	891.28333	609.70453	896.45795	887.14221	557.80957	917.18311	877.33795	553.05768	850.16022	865.14191	784.75519	1491.23865	1349.94617	807.91687	1301.29895	1442.66821	860.78772	1163.12219	1458.75317	924.63165	1060.36121	1465.53479	999.49927	952.48352	1430.75427	965.66498	936.64862	1473.47717	1020.89978	890.75647	1466.69824	842.50928	988.78973	1031	861.95026	968.73694	1288.04272	638.48981	1024.42688	1127.52393	641.37146	1023.98914	1241.94629	824.75537	682.95508	957.40826	864.65448	484.0694	984.13605	882.21417	291.11102	984.09515	983.91119	86.13614	980.53058	980.63074	53.89935	1039.60266	1132.98242	92.65695	926.94061	755.77649	663.73651	1337.91296	717.45166	456.39117	1289.35645	645.10742	281.65372	1290.68494	595.83209	95.23661	1245.05298	553.00336	45.34603	1188.93665	742.95459	32.53821	1254.73145	767.19434	1800.81726	1186.11646	-2845.91699	1034.0144	3357.06519	NaN	NaN	NaN	NaN	NaN	NaN
